# xmcd CD database file
#
# Track frame offsets:
#	150
#	10796
#	22225
#	38556
#	51480
#	60646
#	74140
#	87881
#	103944
#	117257
#
# Disc length: 1725 seconds
#
# Revision: 1
# Processed by: cddbd v1.5.2PL0 Copyright (c) Steve Scherf et al.
# Submitted via: CDex 1.77
#
DISCID=8c06bb0a
DTITLE=Lizzy Long and Little Roy Lewis - Front Porch Pickin'
DYEAR=2008
DGENRE=Country
TTITLE0=Bitter Creek
TTITLE1=You Asked Me To
TTITLE2=Down Yonder
TTITLE3=Dixie Road
TTITLE4=Woah Mule, Woah!
TTITLE5=My Ship Will Sail
TTITLE6=Red Clay Halo
TTITLE7=Faded Love
TTITLE8=That's All
TTITLE9=There's A Rainbow Of Love
EXTD=YEAR: 2008
EXTT0=
EXTT1=
EXTT2=
EXTT3=
EXTT4=
EXTT5=
EXTT6=
EXTT7=
EXTT8=
EXTT9=
PLAYORDER=
